# xmcd CD database file generated by Grip 3.3.1
# 
# Track frame offsets:
#       150
#       22840
#       48943
#       65908
#       70574
#       81690
#       86957
#       100129
#       104648
#       123201
#       138276
#       147651
#       157026
#       177051
#       199026
#       216726
#       226326
#       234201
#       250551
#       262026
#       286176
#       305526
#       323301
# 
# Disc length: 4606 seconds
# 
# Revision: 1
# Processed by: cddbd v1.5.2PL0 Copyright (c) Steve Scherf et al.
# Submitted via: Grip 3.3.1
# 
DISCID=4b11fc17
DTITLE=Ignace Lilien - Forbidden Music in World war II [CD5) - Ignace Li
DTITLE=lien
DYEAR=2015
DGENRE=Classical
TTITLE0=I. Allegro - 'Modern Times Sonata' for piano and violin (1935) - 
TTITLE0=Frans van Ruth (piano), Marijke van Kooten (violin)
TTITLE1=II. Andante cantabile - 'Modern Times Sonata' for piano and violi
TTITLE1=n (1935) - Frans van Ruth (piano), Marijke van Kooten (violin)
TTITLE2=III. Rondo Bréselien - 'Modern Times Sonata' for piano and violi
TTITLE2=n (1935) - Frans van Ruth (piano), Marijke van Kooten (violin)
TTITLE3=I. Incantazione - Divertimento (1950) - Eleonore Pameijer (flute)
TTITLE3=, Frans van Ruth (piano)
TTITLE4=II. Allegro capriccioso - Divertimento (1950) - Eleonore Pameijer
TTITLE4=(flute), Frans van Ruth (piano)
TTITLE5=III. Cantazionne - Divertimento (1950) - Eleonore Pameijer (flute
TTITLE5=), Frans van Ruth (piano)
TTITLE6=IV. Cancion - Divertimento (1950) - Eleonore Pameijer (flute), Fr
TTITLE6=ans van Ruth (piano)
TTITLE7=V. Incantazione - Divertimento (1950) - Eleonore Pameijer (flute)
TTITLE7=, Frans van Ruth (piano)
TTITLE8=VI. Passacaglia - Divertimento (1950) - Eleonore Pameijer (flute)
TTITLE8=, Frans van Ruth (piano)
TTITLE9=I. Galgen - Veronica, Vier Liederen Für Eine Singstimme Mit Klav
TTITLE9=ierbegleitung (1920) - Anja van Wijk (mezzo soprano), Frans van R
TTITLE9=uth (piano)
TTITLE10=II. Lockung - Veronica, Vier Liederen Für Eine Singstimme Mit Kl
TTITLE10=avierbegleitung (1920) - Anja van Wijk (mezzo soprano), Frans van
TTITLE10=Ruth (piano)
TTITLE11=III. Veronica Tanzt - Veronica, Vier Liederen Für Eine Singstimm
TTITLE11=e Mit Klavierbegleitung (1920) - Anja van Wijk (mezzo soprano), F
TTITLE11=rans van Ruth (piano)
TTITLE12=IV. Veronicas Todesgebet - Veronica, Vier Liederen Für Eine Sing
TTITLE12=stimme Mit Klavierbegleitung (1920) - Anja van Wijk (mezzo sopran
TTITLE12=o), Frans van Ruth (piano)
TTITLE13=I. Mädchen Am Fenster - Mietskaserne, Vier Lieder für Eine Sing
TTITLE13=stimme Und Klavier (1932) - Anja van Wijk (mezzo soprano), Frans 
TTITLE13=van Ruth (piano)
TTITLE14=II. Die Naherin - Mietskaserne, Vier Lieder für Eine Singstimme 
TTITLE14=Und Klavier (1932) - Anja van Wijk (mezzo soprano), Frans van Rut
TTITLE14=h (piano)
TTITLE15=III. Am Laufenden Band - Mietskaserne, Vier Lieder für Eine Sing
TTITLE15=stimme Und Klavier (1932) - Anja van Wijk (mezzo soprano), Frans 
TTITLE15=van Ruth (piano)
TTITLE16=IV. Die Schmiede - Mietskaserne, Vier Lieder für Eine Singstimme
TTITLE16=Und Klavier (1932) - Anja van Wijk (mezzo soprano), Frans van Ru
TTITLE16=th (piano)
TTITLE17=Herbst (1923) (ReinerMaria Rilke, Text) - Anja van Wijk (mezzo so
TTITLE17=prano), Frans van Ruth (piano)
TTITLE18=I. La Femme À L'accordéon - Quatre Chansons Des Mendiants (1923
TTITLE18=) - Anja van Wijk (mezzo soprano), Frans van Ruth (piano)
TTITLE19=II. L'aveuge - Quatre Chansons Des Mendiants (1923) - Anja van Wi
TTITLE19=jk (mezzo soprano), Frans van Ruth (piano)
TTITLE20=III. Le Paralytique - Quatre Chansons Des Mendiants (1923) - Anja
TTITLE20=van Wijk (mezzo soprano), Frans van Ruth (piano)
TTITLE21=IV. Le Lepreux - Quatre Chansons Des Mendiants (1923) - Anja van 
TTITLE21=Wijk (mezzo soprano), Frans van Ruth (piano)
TTITLE22=Les Indolents (1923) (Paul Verlaine, Text) - Anja van Wijk (mezzo
TTITLE22=soprano), Frans van Ruth (piano)
EXTD=
EXTT0=
EXTT1=
EXTT2=
EXTT3=
EXTT4=
EXTT5=
EXTT6=
EXTT7=
EXTT8=
EXTT9=
EXTT10=
EXTT11=
EXTT12=
EXTT13=
EXTT14=
EXTT15=
EXTT16=
EXTT17=
EXTT18=
EXTT19=
EXTT20=
EXTT21=
EXTT22=
PLAYORDER=
